custom-analysis
version=1
nRows=4
nColumns=98
inDegrees=no

This file contains tibia displacement and acting force.

Units are S.I. units (seconds, meters, Newtons, ...)
Angles are in degrees.

endheader
time	APT	SIT	knee_angle	aACL_R_force	pACL_R_force	aPCL_R_force	pPCL_R_force	aMCL_R_force	mMCL_R_force	pMCL_R_force	aLCL_R_force	mLCL_R_force	pLCL_R_force	aPCL_L_force	pPCL_L_force	aMCL_L_force	aLCL_L_force	aACL_R_length	pACL_R_length	aPCL_R_length	pPCL_R_length	aMCL_R_length	mMCL_R_length	pMCL_R_length	aLCL_R_length	mLCL_R_length	pLCL_R_length	aPCL_L_length	pPCL_L_length	aMCL_L_length	aLCL_L_length	aACL_R_strain	pACL_R_strain	aPCL_R_strain	pPCL_R_strain	aMCL_R_strain	mMCL_R_strain	pMCL_R_strain	aLCL_R_strain	mLCL_R_strain	pLCL_R_strain	aPCL_L_strain	pPCL_L_strain	aMCL_L_strain	aLCL_L_strain	femur_lat_meniscii_r.femur_lat_r.force.X	femur_lat_meniscii_r.femur_lat_r.force.Y	femur_lat_meniscii_r.femur_lat_r.force.Z	femur_lat_meniscii_r.femur_lat_r.torque.X	femur_lat_meniscii_r.femur_lat_r.torque.Y	femur_lat_meniscii_r.femur_lat_r.torque.Z	femur_lat_meniscii_r.meniscus_lat_r.force.X	femur_lat_meniscii_r.meniscus_lat_r.force.Y	femur_lat_meniscii_r.meniscus_lat_r.force.Z	femur_lat_meniscii_r.meniscus_lat_r.torque.X	femur_lat_meniscii_r.meniscus_lat_r.torque.Y	femur_lat_meniscii_r.meniscus_lat_r.torque.Z	femur_med_meniscii_r.femur_med_r.force.X	femur_med_meniscii_r.femur_med_r.force.Y	femur_med_meniscii_r.femur_med_r.force.Z	femur_med_meniscii_r.femur_med_r.torque.X	femur_med_meniscii_r.femur_med_r.torque.Y	femur_med_meniscii_r.femur_med_r.torque.Z	femur_med_meniscii_r.meniscus_med_r.force.X	femur_med_meniscii_r.meniscus_med_r.force.Y	femur_med_meniscii_r.meniscus_med_r.force.Z	femur_med_meniscii_r.meniscus_med_r.torque.X	femur_med_meniscii_r.meniscus_med_r.torque.Y	femur_med_meniscii_r.meniscus_med_r.torque.Z	femur_med_tibia_r.tibia_upper_r.force.X	femur_med_tibia_r.tibia_upper_r.force.Y	femur_med_tibia_r.tibia_upper_r.force.Z	femur_med_tibia_r.tibia_upper_r.torque.X	femur_med_tibia_r.tibia_upper_r.torque.Y	femur_med_tibia_r.tibia_upper_r.torque.Z	femur_med_tibia_r.femur_med_r.force.X	femur_med_tibia_r.femur_med_r.force.Y	femur_med_tibia_r.femur_med_r.force.Z	femur_med_tibia_r.femur_med_r.torque.X	femur_med_tibia_r.femur_med_r.torque.Y	femur_med_tibia_r.femur_med_r.torque.Z	femur_lat_tibia_r.tibia_upper_r.force.X	femur_lat_tibia_r.tibia_upper_r.force.Y	femur_lat_tibia_r.tibia_upper_r.force.Z	femur_lat_tibia_r.tibia_upper_r.torque.X	femur_lat_tibia_r.tibia_upper_r.torque.Y	femur_lat_tibia_r.tibia_upper_r.torque.Z	femur_lat_tibia_r.femur_lat_r.force.X	femur_lat_tibia_r.femur_lat_r.force.Y	femur_lat_tibia_r.femur_lat_r.force.Z	femur_lat_tibia_r.femur_lat_r.torque.X	femur_lat_tibia_r.femur_lat_r.torque.Y	femur_lat_tibia_r.femur_lat_r.torque.Z	femur_lat_meniscii_force_r	femur_med_meniscii_force_r	femur_lat_tibia_force_r	femur_med_tibia_force_r
      0.20974392	      0.01349162	      0.02618903	     81.47091707	     -2.48526282	      0.00000000	    976.11523993	    635.95692856	     32.42589006	     20.31052189	      0.00000000	      0.00000000	      0.00000000	      0.00000000	      0.00000000	      0.00000000	      0.00000001	      0.00000000	      0.03103584	      0.02444546	      0.03718216	      0.03396754	      0.06148641	      0.05992957	      0.05658021	      0.05013390	      0.04469440	      0.03969915	      0.01525851	      0.01651186	      0.06550154	      0.04489616	      0.00097840	     -0.02447217	      0.19574863	      0.13650193	      0.02431256	      0.00227571	     -0.03657190	     -0.10438709	     -0.20640080	     -0.24155335	      0.00000079	     -0.32847694	      0.00000060	     -0.00000086	    121.63564043	     94.79561369	     17.37240995	     -9.17025681	      2.91731693	     48.01963162	   -121.63564043	    -94.79561369	    -17.37240995	      2.56986524	     -3.71138499	      2.52701264	      0.02595043	      0.00152695	     -0.01650822	      0.00658128	     -0.00040539	      0.01030785	     -0.02595043	     -0.00152695	      0.01650822	     -0.00006625	      0.00078456	     -0.00003135	   -863.98704354	   -380.58061760	    300.29976409	     -8.16855663	     20.90928423	      3.18239911	    863.98704354	    380.58061760	   -300.29976409	    127.61870188	    -15.05141458	    347.90935020	   -293.03952367	   -141.22772027	    -86.45988977	      4.59777863	    -10.39620380	      1.40304734	    293.03952367	    141.22772027	     86.45988977	    -38.32369036	      7.27263405	    118.00677114	    155.18775089	      0.03079412	    336.58987499	    990.70437882
      0.20996007	      0.01347873	      0.02622780	     81.58824857	     -2.09228536	      0.00000000	    977.19620363	    633.99413996	     30.67057024	     18.27874857	      0.00000000	      0.00000000	      0.00000000	      0.00000000	      0.00000000	      0.00000000	      0.00000001	      0.00000000	      0.03103458	      0.02445134	      0.03719633	      0.03398002	      0.06149462	      0.05993530	      0.05658800	      0.05012604	      0.04468518	      0.03969249	      0.01525851	      0.01651186	      0.06550154	      0.04489616	      0.00093798	     -0.02423740	      0.19620436	      0.13691958	      0.02444925	      0.00237151	     -0.03643925	     -0.10452758	     -0.20656447	     -0.24168050	      0.00000079	     -0.32847694	      0.00000060	     -0.00000086	    127.61212434	     94.33956738	     14.46747333	     -7.97184863	      3.02924419	     50.44182726	   -127.61212434	    -94.33956738	    -14.46747333	      2.51570208	     -3.76097199	      2.45623711	      0.02076001	     -0.00022104	     -0.01309516	      0.00520596	     -0.00032325	      0.00825837	     -0.02076001	      0.00022104	      0.01309516	     -0.00004119	      0.00062372	     -0.00007564	   -853.29345235	   -371.08873075	    298.63236474	     -8.01718174	     20.72498609	      3.02591309	    853.29345235	    371.08873075	   -298.63236474	    126.79728774	    -14.88139083	    343.63034820	   -290.38875173	   -137.86761110	    -84.33795142	      4.48214895	    -10.25101647	      1.33173045	    290.38875173	    137.86761110	     84.33795142	    -37.38293030	      7.18970484	    116.95514255	    159.35531380	      0.02454608	    332.33416221	    977.23991485
      0.21040000	      0.01345390	      0.02630841	     81.82729715	     -2.06273284	      0.00000000	    979.17507284	    630.36550349	     26.76876363	     14.00039383	      0.00000000	      0.00000000	      0.00000000	      0.00000000	      0.00000000	      0.00000000	      0.00000001	      0.00000000	      0.03103230	      0.02446328	      0.03722266	      0.03400284	      0.06150955	      0.05994503	      0.05660184	      0.05010811	      0.04466448	      0.03967691	      0.01525851	      0.01651186	      0.06550154	      0.04489616	      0.00086452	     -0.02376105	      0.19705099	      0.13768286	      0.02469813	      0.00253423	     -0.03620351	     -0.10484783	     -0.20693203	     -0.24197818	      0.00000079	     -0.32847694	      0.00000060	     -0.00000086	    138.13296136	     96.95661310	     11.44778803	     -6.81108516	      3.23976747	     54.65836575	   -138.13296136	    -96.95661310	    -11.44778803	      2.55282686	     -3.91894207	      2.47549251	      0.00775011	     -0.00122880	     -0.00580479	      0.00229616	     -0.00012810	      0.00309283	     -0.00775011	      0.00122880	      0.00580479	     -0.00000928	      0.00026530	     -0.00006860	   -839.99041423	   -357.49560528	    299.49313455	     -7.82422412	     20.60584076	      2.81585006	    839.99041423	    357.49560528	   -299.49313455	    126.93484179	    -14.69896397	    338.30535704	   -286.35868012	   -133.48357163	    -80.82571429	      4.31628101	    -10.02068284	      1.26397440	    286.35868012	    133.48357163	     80.82571429	    -35.84881602	      7.06018860	    115.34238698	    169.15185984	      0.00976062	    326.11647254	    960.77215896
      0.21119906	      0.01341180	      0.02646010	     82.26198981	     -3.53798457	      0.00000000	    983.33979891	    627.91352513	     20.80571945	      7.99402222	      0.00000000	      0.00000000	      0.00000000	      0.00000000	      0.00000000	      0.00000000	      0.00000001	      0.00000000	      0.03102749	      0.02448350	      0.03726338	      0.03403709	      0.06153113	      0.05995683	      0.05662107	      0.05006984	      0.04462121	      0.03964287	      0.01525851	      0.01651186	      0.06550154	      0.04489616	      0.00070912	     -0.02295419	      0.19836052	      0.13882881	      0.02505757	      0.00273156	     -0.03587602	     -0.10553146	     -0.20770023	     -0.24262844	      0.00000079	     -0.32847694	      0.00000060	     -0.00000086	    151.66179062	    102.43230819	      9.21395884	     -6.04022577	      3.52335224	     60.04595646	   -151.66179062	   -102.43230819	     -9.21395884	      2.67824727	     -4.18112099	      2.60468702	      0.00040419	      0.00001977	     -0.00031153	      0.00012409	     -0.00000650	      0.00016058	     -0.00040419	     -0.00001977	      0.00031153	     -0.00000108	      0.00001391	     -0.00000051	   -841.91062938	   -346.41750370	    301.87648249	     -7.64206179	     20.70363313	      2.62195122	    841.91062938	    346.41750370	   -301.87648249	    127.71510526	    -14.72968811	    339.10804996	   -285.70518349	   -127.51607786	    -78.00135408	      4.11569880	     -9.90186994	      1.12259352	    285.70518349	    127.51607786	     78.00135408	    -34.55940606	      7.00926729	    115.11613618	    183.24457299	      0.00051070	    322.44691536	    959.13920023
